<svg width="146" height="86" viewBox="0 0 146 86" fill="none" xmlns="http://www.w3.org/2000/svg">
<path d="M93.0909 39.608C93.3411 38.7965 93.645 38.0034 94.0025 37.2288C94.3958 36.4173 94.8606 35.6058 95.3968 34.7943H68.3153V28.8186H95.4505C94.9142 28.0071 94.4494 27.214 94.0562 26.4394C93.6986 25.6279 93.3948 24.8164 93.1445 24.0049H98.6681C100.849 26.6976 103.316 28.7633 106.069 30.2019V33.4664C103.351 34.8312 100.885 36.8784 98.6681 39.608H93.0909Z" fill="#F26545"/>
<path d="M96.1031 63.4267V44.703H110.126C112.774 44.703 115.073 44.1959 117.02 43.1816C118.968 42.0894 120.487 40.5681 121.577 38.6177C122.668 36.6673 123.213 34.3659 123.213 31.7134C123.213 28.9828 122.668 26.6423 121.577 24.6919C120.487 22.7416 118.968 21.2593 117.02 20.2451C115.073 19.2309 112.774 18.7238 110.126 18.7238H70.7125V0H109.541C116.864 0 123.174 1.24825 128.472 3.74475C133.847 6.16324 137.976 9.67394 140.859 14.2769C143.741 18.8798 145.182 24.3799 145.182 30.7772V32.6495C145.182 38.9688 143.741 44.4299 140.859 49.0328C137.976 53.6357 133.847 57.1854 128.472 59.6819C123.174 62.1784 116.864 63.4267 109.541 63.4267H96.1031ZM76.7051 85.2171V44.703H98.4402V85.2171H76.7051Z" fill="#292F3B"/>
<path d="M24.6928 85.2171L0 0H22.3633L40.8828 69.9247L36.8062 67.9402H47.9878L43.7947 69.9247L61.0331 0H82.6975L59.6354 85.2171H24.6928Z" fill="#292F3B"/>
</svg>
