<svg width="20" height="20" viewBox="0 0 20 20" fill="none" xmlns="http://www.w3.org/2000/svg">
<g clip-path="url(#clip0_18_439)">
<path d="M19.3925 7.84916C18.6402 6.61727 17.6913 5.51688 16.5833 4.59166L18.9167 2.25833C19.0685 2.10116 19.1525 1.89066 19.1506 1.67216C19.1487 1.45366 19.061 1.24465 18.9065 1.09015C18.752 0.93564 18.543 0.848 18.3245 0.846101C18.106 0.844202 17.8955 0.928198 17.7383 1.08L15.2008 3.62083C13.6278 2.68651 11.8295 2.19955 10 2.2125C4.84083 2.2125 1.90083 5.74416 0.607501 7.84916C0.207941 8.49542 -0.00370407 9.2402 -0.00370407 10C-0.00370407 10.7598 0.207941 11.5046 0.607501 12.1508C1.3598 13.3827 2.30874 14.4831 3.41667 15.4083L1.08333 17.7417C1.00374 17.8185 0.940257 17.9105 0.896583 18.0122C0.852909 18.1138 0.82992 18.2232 0.828959 18.3338C0.827997 18.4445 0.849082 18.5542 0.890983 18.6566C0.932883 18.759 0.994761 18.8521 1.073 18.9303C1.15125 19.0086 1.24429 19.0704 1.34671 19.1123C1.44912 19.1542 1.55885 19.1753 1.6695 19.1744C1.78015 19.1734 1.8895 19.1504 1.99117 19.1067C2.09284 19.0631 2.18479 18.9996 2.26167 18.92L4.805 16.3767C6.37606 17.3108 8.17223 17.7986 10 17.7875C15.1592 17.7875 18.0992 14.2558 19.3925 12.1508C19.7921 11.5046 20.0037 10.7598 20.0037 10C20.0037 9.2402 19.7921 8.49542 19.3925 7.84916ZM2.0275 11.2783C1.79011 10.8942 1.66438 10.4516 1.66438 10C1.66438 9.54843 1.79011 9.10579 2.0275 8.72166C3.13917 6.91666 5.65167 3.87916 10 3.87916C11.3836 3.87141 12.7477 4.20486 13.9717 4.85L12.2942 6.5275C11.4941 5.99633 10.5349 5.75833 9.57936 5.85387C8.6238 5.94941 7.73072 6.37261 7.05167 7.05166C6.37262 7.73072 5.94941 8.62379 5.85387 9.57936C5.75833 10.5349 5.99634 11.4941 6.5275 12.2942L4.6025 14.2192C3.58175 13.3939 2.7107 12.3991 2.0275 11.2783ZM12.5 10C12.5 10.663 12.2366 11.2989 11.7678 11.7678C11.2989 12.2366 10.663 12.5 10 12.5C9.62876 12.4986 9.26267 12.4131 8.92917 12.25L12.25 8.92916C12.4131 9.26266 12.4986 9.62876 12.5 10ZM7.5 10C7.5 9.33695 7.76339 8.70107 8.23223 8.23223C8.70107 7.76339 9.33696 7.5 10 7.5C10.3712 7.50143 10.7373 7.5869 11.0708 7.75L7.75 11.0708C7.58691 10.7373 7.50144 10.3712 7.5 10ZM17.9725 11.2783C16.8608 13.0833 14.3483 16.1208 10 16.1208C8.61644 16.1286 7.2523 15.7951 6.02833 15.15L7.70583 13.4725C8.50589 14.0037 9.46508 14.2417 10.4206 14.1461C11.3762 14.0506 12.2693 13.6274 12.9483 12.9483C13.6274 12.2693 14.0506 11.3762 14.1461 10.4206C14.2417 9.46507 14.0037 8.50588 13.4725 7.70583L15.3975 5.78083C16.4182 6.60606 17.2893 7.60087 17.9725 8.72166C18.2099 9.10579 18.3356 9.54843 18.3356 10C18.3356 10.4516 18.2099 10.8942 17.9725 11.2783Z" fill="#858D9D"/>
</g>
<defs>
<clipPath id="clip0_18_439">
<rect width="20" height="20" fill="white"/>
</clipPath>
</defs>
</svg>
