<svg width="20" height="20" viewBox="0 0 20 20" fill="none" xmlns="http://www.w3.org/2000/svg">
<g clip-path="url(#clip0_13_356)">
<path d="M19.3925 7.84919C18.1 5.74419 15.16 2.21252 10 2.21252C4.84 2.21252 1.9 5.74419 0.607499 7.84919C0.207939 8.49545 -0.00370598 9.24023 -0.00370598 10C-0.00370598 10.7598 0.207939 11.5046 0.607499 12.1509C1.9 14.2559 4.84 17.7875 10 17.7875C15.16 17.7875 18.1 14.2559 19.3925 12.1509C19.7921 11.5046 20.0037 10.7598 20.0037 10C20.0037 9.24023 19.7921 8.49545 19.3925 7.84919ZM17.9717 11.2784C16.8617 13.0834 14.3492 16.1209 10 16.1209C5.65083 16.1209 3.13833 13.0834 2.02833 11.2784C1.79095 10.8942 1.66521 10.4516 1.66521 10C1.66521 9.54846 1.79095 9.10582 2.02833 8.72169C3.13833 6.91669 5.65083 3.87919 10 3.87919C14.3492 3.87919 16.8617 6.91336 17.9717 8.72169C18.2091 9.10582 18.3348 9.54846 18.3348 10C18.3348 10.4516 18.2091 10.8942 17.9717 11.2784Z" fill="#858D9D"/>
<path d="M10 5.83337C9.17591 5.83337 8.37033 6.07774 7.68512 6.53558C6.99992 6.99342 6.46587 7.64417 6.1505 8.40553C5.83514 9.16689 5.75262 10.0047 5.9134 10.8129C6.07417 11.6212 6.471 12.3636 7.05372 12.9463C7.63644 13.529 8.37887 13.9259 9.18712 14.0866C9.99538 14.2474 10.8332 14.1649 11.5945 13.8495C12.3559 13.5342 13.0066 13.0001 13.4645 12.3149C13.9223 11.6297 14.1667 10.8241 14.1667 10C14.1653 8.89538 13.7259 7.83634 12.9448 7.05522C12.1637 6.27411 11.1047 5.8347 10 5.83337ZM10 12.5C9.50555 12.5 9.0222 12.3534 8.61107 12.0787C8.19995 11.804 7.87952 11.4136 7.6903 10.9567C7.50108 10.4999 7.45157 9.99727 7.54804 9.51232C7.6445 9.02736 7.8826 8.58191 8.23223 8.23227C8.58186 7.88264 9.02732 7.64454 9.51227 7.54808C9.99723 7.45161 10.4999 7.50112 10.9567 7.69034C11.4135 7.87956 11.804 8.19999 12.0787 8.61112C12.3534 9.02224 12.5 9.50559 12.5 10C12.5 10.6631 12.2366 11.299 11.7678 11.7678C11.2989 12.2366 10.663 12.5 10 12.5Z" fill="#858D9D"/>
</g>
<defs>
<clipPath id="clip0_13_356">
<rect width="20" height="20" fill="white"/>
</clipPath>
</defs>
</svg>
