<svg width="24" height="24" viewBox="0 0 24 24" fill="none" xmlns="http://www.w3.org/2000/svg">
<g clip-path="url(#clip0_65_288)">
<circle cx="12" cy="12" r="11" fill="#F26545"/>
<path d="M24 12C24 9.62663 23.2962 7.30655 21.9776 5.33316C20.6591 3.35977 18.7849 1.8217 16.5922 0.913451C14.3995 0.00519943 11.9867 -0.232441 9.65892 0.230582C7.33115 0.693605 5.19295 1.83649 3.51472 3.51472C1.83649 5.19295 0.693605 7.33115 0.230582 9.65892C-0.232441 11.9867 0.00519943 14.3995 0.913451 16.5922C1.8217 18.7849 3.35977 20.6591 5.33316 21.9776C7.30655 23.2962 9.62663 24 12 24C15.1815 23.9966 18.2318 22.7312 20.4815 20.4815C22.7312 18.2318 23.9966 15.1815 24 12ZM2.00001 12C2.00001 10.0222 2.5865 8.08879 3.68531 6.4443C4.78412 4.79981 6.34591 3.51809 8.17317 2.76121C10.0004 2.00433 12.0111 1.8063 13.9509 2.19215C15.8907 2.578 17.6725 3.53041 19.0711 4.92894C20.4696 6.32746 21.422 8.10929 21.8079 10.0491C22.1937 11.9889 21.9957 13.9996 21.2388 15.8268C20.4819 17.6541 19.2002 19.2159 17.5557 20.3147C15.9112 21.4135 13.9778 22 12 22C9.34873 21.9971 6.80689 20.9426 4.93215 19.0679C3.05742 17.1931 2.00292 14.6513 2.00001 12Z" fill="#292F3B"/>
<path d="M16.001 14C16.001 15.654 14.655 17 13.001 17V18C13.001 18.552 12.553 19 12.001 19C11.449 19 11.001 18.552 11.001 18V17H10.733C9.665 17 8.67 16.426 8.135 15.501C7.859 15.023 8.022 14.412 8.5 14.135C8.977 13.858 9.589 14.022 9.866 14.5C10.044 14.808 10.377 15 10.733 15H13.001C13.553 15 14.001 14.551 14.001 14C14.001 13.622 13.73 13.302 13.357 13.24L10.315 12.733C8.974 12.51 8 11.36 8 10C8 8.346 9.346 7 11 7V6C11 5.448 11.448 5 12 5C12.552 5 13 5.448 13 6V7H13.268C14.335 7 15.331 7.575 15.866 8.5C16.143 8.978 15.979 9.589 15.502 9.866C15.022 10.142 14.41 9.979 14.136 9.501C13.957 9.192 13.625 9.001 13.269 9.001H11.001C10.45 9.001 10.001 9.45 10.001 10.001C10.001 10.379 10.272 10.699 10.645 10.761L13.686 11.268C15.028 11.491 16.001 12.641 16.001 14.001V14Z" fill="#292F3B"/>
</g>
<defs>
<clipPath id="clip0_65_288">
<rect width="24" height="24" fill="white"/>
</clipPath>
</defs>
</svg>
