<svg width="24" height="24" viewBox="0 0 24 24" fill="none" xmlns="http://www.w3.org/2000/svg">
<g clip-path="url(#clip0_65_147)">
<circle cx="12" cy="12" r="11" fill="#F26545"/>
<path fill-rule="evenodd" clip-rule="evenodd" d="M14.2727 6H9.72727C8.22364 6 7 7.24246 7 8.76923V15.2308C7 16.7575 8.22364 18 9.72727 18H14.2727C15.7764 18 17 16.7575 17 15.2308V8.76923C17 7.24246 15.7764 6 14.2727 6ZM14.2727 16.1538C14.7745 16.1538 15.1818 15.7394 15.1818 15.2308V8.76923C15.1818 8.26062 14.7745 7.84615 14.2727 7.84615H9.72727C9.22545 7.84615 8.81818 8.26062 8.81818 8.76923V15.2308C8.81818 15.7394 9.22545 16.1538 9.72727 16.1538H14.2727ZM14.2727 10.6126C14.2727 11.1222 13.8664 11.5357 13.3636 11.5357H10.6364C10.1336 11.5357 9.72727 11.1222 9.72727 10.6126C9.72727 10.1031 10.1336 9.68954 10.6364 9.68954H13.3636C13.8664 9.68954 14.2727 10.1031 14.2727 10.6126ZM14.2727 13.3846C14.2727 13.8942 13.8664 14.3077 13.3636 14.3077H10.6364C10.1336 14.3077 9.72727 13.8942 9.72727 13.3846C9.72727 12.8751 10.1336 12.4615 10.6364 12.4615H13.3636C13.8664 12.4615 14.2727 12.8751 14.2727 13.3846Z" fill="#292F3B"/>
<path d="M24 12C24 9.62663 23.2962 7.30655 21.9776 5.33316C20.6591 3.35977 18.7849 1.8217 16.5922 0.913451C14.3995 0.00519943 11.9867 -0.232441 9.65892 0.230582C7.33115 0.693605 5.19295 1.83649 3.51472 3.51472C1.83649 5.19295 0.693605 7.33115 0.230582 9.65892C-0.232441 11.9867 0.00519943 14.3995 0.913451 16.5922C1.8217 18.7849 3.35977 20.6591 5.33316 21.9776C7.30655 23.2962 9.62663 24 12 24C15.1815 23.9966 18.2318 22.7312 20.4815 20.4815C22.7312 18.2318 23.9966 15.1815 24 12ZM2.00001 12C2.00001 10.0222 2.5865 8.08879 3.68531 6.4443C4.78412 4.79981 6.34591 3.51809 8.17317 2.76121C10.0004 2.00433 12.0111 1.8063 13.9509 2.19215C15.8907 2.578 17.6725 3.53041 19.0711 4.92894C20.4696 6.32746 21.422 8.10929 21.8079 10.0491C22.1937 11.9889 21.9957 13.9996 21.2388 15.8268C20.4819 17.6541 19.2002 19.2159 17.5557 20.3147C15.9112 21.4135 13.9778 22 12 22C9.34873 21.9971 6.80689 20.9426 4.93215 19.0679C3.05742 17.1931 2.00292 14.6513 2.00001 12Z" fill="#292F3B"/>
</g>
<defs>
<clipPath id="clip0_65_147">
<rect width="24" height="24" fill="white"/>
</clipPath>
</defs>
</svg>
