<svg width="24" height="24" viewBox="0 0 24 24" fill="none" xmlns="http://www.w3.org/2000/svg">
<g clip-path="url(#clip0_65_332)">
<path d="M24 12C24 9.62663 23.2962 7.30655 21.9776 5.33316C20.6591 3.35977 18.7849 1.8217 16.5922 0.913451C14.3995 0.00519943 11.9867 -0.232441 9.65892 0.230582C7.33115 0.693605 5.19295 1.83649 3.51472 3.51472C1.83649 5.19295 0.693605 7.33115 0.230582 9.65892C-0.232441 11.9867 0.00519943 14.3995 0.913451 16.5922C1.8217 18.7849 3.35977 20.6591 5.33316 21.9776C7.30655 23.2962 9.62663 24 12 24C15.1815 23.9966 18.2318 22.7312 20.4815 20.4815C22.7312 18.2318 23.9966 15.1815 24 12ZM2.00001 12C2.00001 10.0222 2.5865 8.08879 3.68531 6.4443C4.78412 4.79981 6.34591 3.51809 8.17317 2.76121C10.0004 2.00433 12.0111 1.8063 13.9509 2.19215C15.8907 2.578 17.6725 3.53041 19.0711 4.92894C20.4696 6.32746 21.422 8.10929 21.8079 10.0491C22.1937 11.9889 21.9957 13.9996 21.2388 15.8268C20.4819 17.6541 19.2002 19.2159 17.5557 20.3147C15.9112 21.4135 13.9778 22 12 22C9.34873 21.9971 6.80689 20.9426 4.93215 19.0679C3.05742 17.1931 2.00292 14.6513 2.00001 12Z" fill="#292F3B"/>
<path d="M17.2174 7C17.6496 7 18 7.35346 18 7.78947C18 8.22549 17.6496 8.57895 17.2174 8.57895H8.09153C7.80086 8.57895 7.56522 8.81459 7.56522 9.10526H16C17.1046 9.10526 18 10.0007 18 11.1053V15C18 16.1046 17.1046 17 16 17H8C6.89543 17 6 16.1046 6 15V9C6 7.89543 6.89543 7 8 7H17.2174ZM7.56522 14.4211C7.56522 14.9733 8.01293 15.4211 8.56522 15.4211H15.4348C15.9871 15.4211 16.4348 14.9733 16.4348 14.4211V11.6842C16.4348 11.1319 15.9871 10.6842 15.4348 10.6842H8.56522C8.01293 10.6842 7.56522 11.1319 7.56522 11.6842V14.4211Z" fill="#292F3B"/>
<circle cx="14.75" cy="12.25" r="0.75" fill="#292F3B"/>
</g>
<defs>
<clipPath id="clip0_65_332">
<rect width="24" height="24" fill="white"/>
</clipPath>
</defs>
</svg>
