<svg width="24" height="24" viewBox="0 0 24 24" fill="none" xmlns="http://www.w3.org/2000/svg">
<g clip-path="url(#clip0_146_1150)">
<path d="M24 12C24 9.62663 23.2962 7.30655 21.9776 5.33316C20.6591 3.35977 18.7849 1.8217 16.5922 0.913451C14.3995 0.00519943 11.9867 -0.232441 9.65892 0.230582C7.33115 0.693605 5.19295 1.83649 3.51472 3.51472C1.83649 5.19295 0.693605 7.33115 0.230582 9.65892C-0.232441 11.9867 0.00519943 14.3995 0.913451 16.5922C1.8217 18.7849 3.35977 20.6591 5.33316 21.9776C7.30655 23.2962 9.62663 24 12 24C15.1815 23.9966 18.2318 22.7312 20.4815 20.4815C22.7312 18.2318 23.9966 15.1815 24 12ZM2.00001 12C2.00001 10.0222 2.5865 8.08879 3.68531 6.4443C4.78412 4.79981 6.34591 3.51809 8.17317 2.76121C10.0004 2.00433 12.0111 1.8063 13.9509 2.19215C15.8907 2.578 17.6725 3.53041 19.0711 4.92894C20.4696 6.32746 21.422 8.10929 21.8079 10.0491C22.1937 11.9889 21.9957 13.9996 21.2388 15.8268C20.4819 17.6541 19.2002 19.2159 17.5557 20.3147C15.9112 21.4135 13.9778 22 12 22C9.34873 21.9971 6.80689 20.9426 4.93215 19.0679C3.05742 17.1931 2.00292 14.6513 2.00001 12Z" fill="#292F3B"/>
<path fill-rule="evenodd" clip-rule="evenodd" d="M16.375 8H7.625C6.72719 8 6 8.716 6 9.6V14.4C6 15.284 6.72719 16 7.625 16H16.375C17.2728 16 18 15.284 18 14.4V9.6C18 8.716 17.2728 8 16.375 8ZM6.8125 14C6.8125 14.6624 7.3585 15.2 8.03125 15.2C8.704 15.2 9.25 14.6624 9.25 14C9.25 13.3376 8.704 12.8 8.03125 12.8C7.3585 12.8 6.8125 13.3376 6.8125 14ZM12 14.4C10.6537 14.4 9.5625 13.3256 9.5625 12C9.5625 10.6744 10.6537 9.6 12 9.6C13.3463 9.6 14.4375 10.6744 14.4375 12C14.4375 13.3256 13.3463 14.4 12 14.4ZM6.8125 10C6.8125 10.6624 7.3585 11.2 8.03125 11.2C8.704 11.2 9.25 10.6624 9.25 10C9.25 9.3376 8.704 8.8 8.03125 8.8C7.3585 8.8 6.8125 9.3376 6.8125 10ZM15.9688 11.2C15.296 11.2 14.75 10.6624 14.75 10C14.75 9.3376 15.296 8.8 15.9688 8.8C16.6415 8.8 17.1875 9.3376 17.1875 10C17.1875 10.6624 16.6415 11.2 15.9688 11.2ZM14.75 14C14.75 14.6624 15.296 15.2 15.9688 15.2C16.6415 15.2 17.1875 14.6624 17.1875 14C17.1875 13.3376 16.6415 12.8 15.9688 12.8C15.296 12.8 14.75 13.3376 14.75 14Z" fill="#292F3B"/>
</g>
<defs>
<clipPath id="clip0_146_1150">
<rect width="24" height="24" fill="white"/>
</clipPath>
</defs>
</svg>
