<svg width="24" height="24" viewBox="0 0 24 24" fill="none" xmlns="http://www.w3.org/2000/svg">
<g clip-path="url(#clip0_65_614)">
<circle cx="12" cy="12" r="11" fill="#F26545"/>
<path d="M12 18.001C14.385 18.001 16.544 16.588 17.5 14.401C17.721 13.896 17.49 13.306 16.984 13.085C16.478 12.863 15.889 13.094 15.667 13.601C15.03 15.059 13.591 16.001 12 16.001C11.047 16.001 10.152 15.657 9.447 15.072L10.289 14.23C10.744 13.805 10.402 12.98 9.78 13.001H6.72C6.322 13.001 6 13.323 6 13.721V16.781C6 17.488 6.805 17.745 7.229 17.29L8.024 16.495C9.101 17.446 10.506 18.001 12 18.001Z" fill="#292F3B"/>
<path d="M16.77 6.711C16.976 6.505 17.285 6.444 17.555 6.555C17.824 6.666 17.999 6.929 17.999 7.22V10.28C17.999 10.678 17.677 11 17.279 11H14.219C13.537 11 13.255 10.196 13.71 9.771L14.552 8.929C13.847 8.344 12.952 8 11.999 8C10.409 8 8.969 8.942 8.332 10.4C8.11 10.907 7.521 11.139 7.015 10.916C6.509 10.696 6.278 10.106 6.499 9.6C7.454 7.413 9.613 6 11.999 6C13.494 6 14.899 6.555 15.975 7.506L16.77 6.711Z" fill="#292F3B"/>
<path d="M24 12C24 9.62663 23.2962 7.30655 21.9776 5.33316C20.6591 3.35977 18.7849 1.8217 16.5922 0.913451C14.3995 0.00519943 11.9867 -0.232441 9.65892 0.230582C7.33115 0.693605 5.19295 1.83649 3.51472 3.51472C1.83649 5.19295 0.693605 7.33115 0.230582 9.65892C-0.232441 11.9867 0.00519943 14.3995 0.913451 16.5922C1.8217 18.7849 3.35977 20.6591 5.33316 21.9776C7.30655 23.2962 9.62663 24 12 24C15.1815 23.9966 18.2318 22.7312 20.4815 20.4815C22.7312 18.2318 23.9966 15.1815 24 12ZM2.00001 12C2.00001 10.0222 2.5865 8.08879 3.68531 6.4443C4.78412 4.79981 6.34591 3.51809 8.17317 2.76121C10.0004 2.00433 12.0111 1.8063 13.9509 2.19215C15.8907 2.578 17.6725 3.53041 19.0711 4.92894C20.4696 6.32746 21.422 8.10929 21.8079 10.0491C22.1937 11.9889 21.9957 13.9996 21.2388 15.8268C20.4819 17.6541 19.2002 19.2159 17.5557 20.3147C15.9112 21.4135 13.9778 22 12 22C9.34873 21.9971 6.80689 20.9426 4.93215 19.0679C3.05742 17.1931 2.00292 14.6513 2.00001 12Z" fill="#292F3B"/>
</g>
<defs>
<clipPath id="clip0_65_614">
<rect width="24" height="24" fill="white"/>
</clipPath>
</defs>
</svg>
